<svg xmlns="http://www.w3.org/2000/svg" xmlns:xlink="http://www.w3.org/1999/xlink" width="128" height="128" viewBox="0 0 128 128">
  <defs>
    <clipPath id="clip-afspraak">
      <rect width="128" height="128"/>
    </clipPath>
  </defs>
  <g id="afspraak" clip-path="url(#clip-afspraak)">
    <g id="Group_4" data-name="Group 4" transform="translate(-814 -243)">
      <g id="afspraak-2" data-name="afspraak" transform="translate(317 1)">
        <path id="Subtraction_7" data-name="Subtraction 7" d="M-261.693,84H-313a4,4,0,0,1-4-4V12a4,4,0,0,1,4-4h4v6a4,4,0,0,0,4,4h8a4,4,0,0,0,4-4V8h43v6a4,4,0,0,0,4,4h8a4,4,0,0,0,4-4V8h4a4.005,4.005,0,0,1,4,4V54.063a24.751,24.751,0,0,0-9-2.885V26h-73V75h45.019c-.013.324-.02.659-.02,1a24.966,24.966,0,0,0,1.307,8Zm.361-17H-270V60h12v1a24.953,24.953,0,0,0-3.331,6ZM-273,67h-12V60h12v7Zm-15,0h-12V60h12v7Zm40.183-14v0h0L-253,53V46h12v5.178A24.845,24.845,0,0,0-247.817,53ZM-258,53h-12V46h12v7Zm-15,0h-12V46h12v7Zm-15,0h-12V46h12v7Zm47-14h-12V32h12v7Zm-16,0h-13V32h13v7Zm-16,0h-12V32h12v7Zm-15,0h-12V32h12v7Zm48-23h-4a4,4,0,0,1-4-4V3a4.005,4.005,0,0,1,4-4h4a4.005,4.005,0,0,1,4,4v9A4,4,0,0,1-240,16Zm-59,0h-4a4,4,0,0,1-4-4V3a4,4,0,0,1,4-4h4a4,4,0,0,1,4,4v9A4,4,0,0,1-299,16Z" transform="translate(826 256)"/>
      </g>
      <g id="clock" transform="translate(805 242)">
        <path id="Union_4" data-name="Union 4" d="M-337.731-192.965a24.912,24.912,0,0,1-7.946-5.358,24.922,24.922,0,0,1-5.358-7.946A24.839,24.839,0,0,1-353-216a24.835,24.835,0,0,1,1.965-9.731,24.915,24.915,0,0,1,5.358-7.947,24.912,24.912,0,0,1,7.946-5.358A24.856,24.856,0,0,1-328-241a24.851,24.851,0,0,1,9.731,1.965,24.912,24.912,0,0,1,7.946,5.358,24.916,24.916,0,0,1,5.358,7.947A24.848,24.848,0,0,1-303-216a24.855,24.855,0,0,1-1.965,9.732,24.922,24.922,0,0,1-5.358,7.946,24.912,24.912,0,0,1-7.946,5.358A24.835,24.835,0,0,1-328-191,24.839,24.839,0,0,1-337.731-192.965Zm1.947-41.463a19.931,19.931,0,0,0-6.358,4.286,19.945,19.945,0,0,0-4.287,6.357A19.872,19.872,0,0,0-348-216a19.872,19.872,0,0,0,1.571,7.785,19.949,19.949,0,0,0,4.287,6.358,19.946,19.946,0,0,0,6.358,4.286A19.869,19.869,0,0,0-328-196a19.872,19.872,0,0,0,7.785-1.571,19.942,19.942,0,0,0,6.357-4.286,19.948,19.948,0,0,0,4.287-6.358A19.889,19.889,0,0,0-308-216a19.889,19.889,0,0,0-1.571-7.785,19.945,19.945,0,0,0-4.287-6.357,19.928,19.928,0,0,0-6.357-4.286A19.873,19.873,0,0,0-328-236,19.873,19.873,0,0,0-335.785-234.428ZM-333-216.5a4.5,4.5,0,0,1,2-3.742V-229.5a2.5,2.5,0,0,1,2.5-2.5,2.5,2.5,0,0,1,2.5,2.5v9.258a4.52,4.52,0,0,1,1.532,1.741H-313a2.5,2.5,0,0,1,2.5,2.5,2.5,2.5,0,0,1-2.5,2.5h-12.146A4.489,4.489,0,0,1-328.5-212,4.5,4.5,0,0,1-333-216.5Z" transform="translate(428 307)"/>
        <circle id="Ellipse_3" data-name="Ellipse 3" cx="4.5" cy="4.5" r="4.5" transform="translate(95 86)"/>
      </g>
    </g>
  </g>
</svg>
