<svg xmlns="http://www.w3.org/2000/svg" xmlns:xlink="http://www.w3.org/1999/xlink" width="128" height="128" viewBox="0 0 128 128">
  <defs>
    <clipPath id="clip-medicijnen">
      <rect width="128" height="128"/>
    </clipPath>
  </defs>
  <g id="medicijnen" clip-path="url(#clip-medicijnen)">
    <g id="Group_3" data-name="Group 3" transform="translate(-6 1)">
      <path id="Subtraction_6" data-name="Subtraction 6" d="M-322-159h-25a6.007,6.007,0,0,1-6-6v-38.157c0-1.814,3.776-6.3,6.944-9.738,3.424-3.719,6.913-7.074,6.944-7.1h29.992l.012.011c.4.376,4.028,3.774,7.548,7.372,2.194,2.244,3.943,4.148,5.2,5.66,1.568,1.889,2.362,3.167,2.362,3.8v16.835l-7,3.566V-197a3,3,0,0,0-3-3h-39a3,3,0,0,0-3,3v24a3,3,0,0,0,3,3h22.808A15.759,15.759,0,0,0-322-159Zm1-15h-7v-7.5h-7.5v-7h7.5V-196h7v7.5h7.5v7H-321v7.5Zm16-48h-38a3,3,0,0,1-3-3v-13a3,3,0,0,1,3-3h38a3,3,0,0,1,3,3v13A3,3,0,0,1-305-222Z" transform="translate(377.001 256)"/>
      <g id="Group_2" data-name="Group 2" transform="translate(-42.146 26.44) rotate(-26)">
        <path id="Union_14" data-name="Union 14" d="M-324-214h-15.5a13.412,13.412,0,0,1-9.546-3.954A13.413,13.413,0,0,1-353-227.5a13.411,13.411,0,0,1,3.954-9.545A13.413,13.413,0,0,1-339.5-241h30.269l.079,0h0a13.39,13.39,0,0,1,8.422,3.234l0,0,.043.037a13.581,13.581,0,0,1,1.4,1.4l.035.04,0,.006A13.39,13.39,0,0,1-296-227.853v.005c0,.023,0,.047,0,.071v.018c0,.021,0,.042,0,.064s0,.015,0,.023q0,.035,0,.069c0,.006,0,.011,0,.017q0,.043,0,.086t0,.087c0,.005,0,.011,0,.016,0,.023,0,.047,0,.07,0,.007,0,.015,0,.022s0,.043,0,.064v.017c0,.024,0,.048,0,.072v0a13.4,13.4,0,0,1-3.391,8.6l-.013.015-.032.036q-.417.466-.876.892l-.011.01-.041.038A13.4,13.4,0,0,1-309.151-214h0l-.075,0H-324Zm-23.632-21.632A11.425,11.425,0,0,0-351-227.5a11.428,11.428,0,0,0,3.368,8.132A11.428,11.428,0,0,0-339.5-216H-324v-23h-15.5A11.425,11.425,0,0,0-347.632-235.632Z" transform="translate(412 337)"/>
      </g>
    </g>
  </g>
</svg>
