<svg xmlns="http://www.w3.org/2000/svg" xmlns:xlink="http://www.w3.org/1999/xlink" width="128" height="128" viewBox="0 0 128 128">
  <defs>
    <clipPath id="clip-muziek">
      <rect width="128" height="128"/>
    </clipPath>
  </defs>
  <g id="muziek" clip-path="url(#clip-muziek)">
    <path id="muziek-2" data-name="muziek" d="M-353-171.84c0-5.247,5.149-9.5,11.5-9.5a13.856,13.856,0,0,1,2.5.225V-213.34l40.515-3.66,0,.023.035-.014-.562,40.2q.014.224.013.451c0,4.971-4.925,9-11,9s-11-4.029-11-9,4.925-9,11-9a13.373,13.373,0,0,1,2,.148v-17l-22,2.287v28.561h-.016c-.314,5.015-5.334,9-11.483,9C-347.851-162.34-353-166.593-353-171.84Zm58-39.7c0-3.423,3.356-6.2,7.494-6.2a9.012,9.012,0,0,1,1.629.148v-21.024l26.4-2.388v.014l.023-.008-.366,26.227c.006.1.009.2.009.293,0,3.243-3.209,5.872-7.169,5.872s-7.168-2.629-7.168-5.872,3.209-5.872,7.168-5.872a8.706,8.706,0,0,1,1.3.1v-11.089l-14.337,1.491v18.634h-.01c-.205,3.271-3.477,5.872-7.484,5.872C-291.644-205.34-295-208.114-295-211.538Z" transform="translate(370 265.34)"/>
  </g>
</svg>
