<svg xmlns="http://www.w3.org/2000/svg" xmlns:xlink="http://www.w3.org/1999/xlink" width="128" height="128" viewBox="0 0 128 128">
  <defs>
    <clipPath id="clip-zuster">
      <rect width="128" height="128"/>
    </clipPath>
  </defs>
  <g id="zuster" clip-path="url(#clip-zuster)">
    <g id="zuster_1_" data-name="zuster (1)" transform="translate(-164.066 726.773)">
      <path id="Path_25" data-name="Path 25" d="M218.646-714.618a79.3,79.3,0,0,0-22.1,4.724c-4.391,1.65-4.618,1.923-3.8,4.269.394,1.151,2.861,8.327,4.421,12.884l.606,1.771-.545,1.09c-1.257,2.5-1.469,5.238-.53,6.964a9.076,9.076,0,0,1,.227,2.8,16.594,16.594,0,0,0,.363,3.861,20.463,20.463,0,0,0,2.695,6.783,6.112,6.112,0,0,1,.636,1.151c-.03.015-.3.2-.59.394s-1.09.833-1.771,1.393c-3.255,2.74-5.223,6.4-6.1,11.385a36.037,36.037,0,0,0-.151,3.634,32.52,32.52,0,0,0,1.665,10.886l.621,1.832-.106,2.21a27.41,27.41,0,0,0,.091,3.936,13.361,13.361,0,0,0,.939,4.194c.651.787,6.571,2.816,10.719,3.679a72.759,72.759,0,0,0,14.126,1.514h2.256l-.091.348a4.108,4.108,0,0,0,.03,2.634,67.461,67.461,0,0,0,4.936,7.3,3.974,3.974,0,0,0,4.391.908c.318-.167,2.392-1.575,4.6-3.134l4.042-2.831,1.211.045a4.46,4.46,0,0,0,1.756-.182c.621-.257,10.113-6.843,10.78-7.479a3.658,3.658,0,0,0,1.09-2.1l.151-.787,1.893-1.317c7.176-5,7.3-5.087,7.737-6.041a4.593,4.593,0,0,0,0-3.179,72.845,72.845,0,0,0-4.845-6.934,3.338,3.338,0,0,0-2.816-1.226c-1.332,0-1.317-.015-5.677,3.058-1.877,1.332-3.422,2.392-3.452,2.377a4.176,4.176,0,0,1,.2-.969,32.758,32.758,0,0,0,.984-8.66,19.854,19.854,0,0,0-.318-4.542,18.615,18.615,0,0,0-4.027-8.721,25.108,25.108,0,0,0-3.785-3.285l-.636-.424.53-.833a21.136,21.136,0,0,0,3.24-10.7,4.08,4.08,0,0,1,.318-2.029c.3-.606.318-.833.242-2.574-.03-1.06-.227-2.922-.409-4.148l-.333-2.226.318-1.029c4.981-15.836,4.89-15.564,4.648-16.139-.257-.621-1.105-1.105-4.209-2.377a57.7,57.7,0,0,0-15.337-3.876C227.594-714.557,220.448-714.739,218.646-714.618Zm10.976,3.6a54.175,54.175,0,0,1,11.052,2.513,32,32,0,0,1,4.769,1.953c0,.106-.409,1.453-2.271,7.358-.681,2.165-1.378,4.375-1.544,4.921a7.94,7.94,0,0,1-.394,1.09,8.1,8.1,0,0,1-1.771-.348,66.932,66.932,0,0,0-13.974-2.12,77.605,77.605,0,0,0-23.694,2.725c-1.2.348-1.045.484-1.741-1.575-.848-2.468-3.482-10.129-3.724-10.825a5.564,5.564,0,0,1-.242-.787,5.792,5.792,0,0,1,1.211-.56,77.787,77.787,0,0,1,20.969-4.618C220.115-711.423,227.882-711.242,229.623-711.015Zm-1.135,18.864a60.62,60.62,0,0,1,10.749,2c.878.242,1.6.469,1.635.484.061.061.636,4.057.636,4.466,0,.394.045.409-1.817-.106a72.624,72.624,0,0,0-11.052-1.877,132.354,132.354,0,0,0-14.08,0,89.41,89.41,0,0,0-11.885,1.938c-1.241.3-2.468.56-2.725.575-.439.015-.454-.015-.5-.742a5.605,5.605,0,0,1,.681-2.907c.394-.787.424-.818,1.423-1.105A71.993,71.993,0,0,1,216-692.135c1.09-.091,2.271-.2,2.649-.227C219.873-692.468,227.019-692.317,228.487-692.15Zm1.2,8.4a57.136,57.136,0,0,1,10.2,1.908l1.014.3v1.484c0,7.933-5.92,15.14-14.383,17.517a21.449,21.449,0,0,1-22.892-7.419,17.96,17.96,0,0,1-3.452-10.234c0-.939.03-1.03.348-1.12a81.539,81.539,0,0,1,16.23-2.725C219.025-684.172,227.76-683.975,229.683-683.748Zm-28.054,19.107c-.03.151-.106.681-.167,1.181-.3,2.846-1.347,6.48-3.634,12.642-.454,1.211-1.06,2.937-1.378,3.83a8.132,8.132,0,0,1-.621,1.559,27.112,27.112,0,0,1-.515-6,16,16,0,0,1,.939-6.419,13.047,13.047,0,0,1,4.073-6.1C201.523-664.944,201.75-665.065,201.629-664.641Zm40.09,1.469a13.964,13.964,0,0,1,1.681,1.983,18.279,18.279,0,0,1,2.574,8.251,41.42,41.42,0,0,1-.363,6.51c-.136.606-.076.727-.984-1.817-.363-1.045-1.12-3.149-1.681-4.693a47.029,47.029,0,0,1-2.892-10.658l-.106-1.029.348.182A11.384,11.384,0,0,1,241.719-663.172Zm-4.512,2.513a71.479,71.479,0,0,0,3.285,10.674c1.983,5.465,3.164,9.22,2.967,9.372-.03.015-1.423.984-3.089,2.135-6.692,4.648-7.555,5.3-7.933,6a5.9,5.9,0,0,0-.545,1.408l-.167.757-2.528,1.771-2.528,1.771-1.938.106a103.221,103.221,0,0,1-11.537-.288,62.55,62.55,0,0,1-9.493-1.771c-2.407-.636-5.632-1.8-5.783-2.089-.424-.787-.606-5.042-.318-7.237.424-3.179,1.06-5.39,3.406-11.855,2.574-7.04,3.1-8.933,3.8-13.429l.076-.484,1.241.878c.681.484,1.726,1.135,2.3,1.453.59.318,1.075.59,1.09.606a6.2,6.2,0,0,1-.333,1.166,23.837,23.837,0,0,0-1.393,7.086c-.106,2.861.167,3.936,1.3,5.193,1.272,1.408,5.435,2.226,11.279,2.226,4.587,0,10.992-.742,12.036-1.378.575-.348,1.014-1.529,1.257-3.316a22.782,22.782,0,0,0-1.378-9.341l-.575-1.7,1.226-.7a25.746,25.746,0,0,0,2.438-1.59l1.211-.908.121.787C236.784-662.915,237-661.7,237.208-660.659Zm-23.028,1.438a27.473,27.473,0,0,0,6.359.833,27.473,27.473,0,0,0,6.359-.833c.833-.212,1.559-.378,1.62-.378.257,0,1.151,2.755,1.575,4.845a18.124,18.124,0,0,1,.257,4.769l-.136.606-1.12.182c-5.768.969-12.4.939-16.275-.045-1.332-.348-1.544-.515-1.756-1.529-.3-1.453.106-4.1,1.166-7.585a11.774,11.774,0,0,1,.409-1.241C212.651-659.6,213.347-659.433,214.18-659.221ZM257.5-643.884c.182.121,4.012,5.526,4.285,6.071.167.3.151.394-.076.621-.545.53-7.509,5.344-7.752,5.36a52.221,52.221,0,0,1-4.724-6.525c0-.182,7.676-5.647,7.933-5.647A.744.744,0,0,1,257.5-643.884Zm-10.84,7.752c.545.787,1.923,2.725,3.028,4.315,1.469,2.074,2.029,3,2.044,3.316,0,.5.363.212-6.631,5.117-2.3,1.62-3.089,2.1-3.391,2.059-.333-.03-.924-.787-3.482-4.436-2.15-3.058-3.073-4.5-3.043-4.739.061-.469,9.568-7.176,10.1-7.116C245.55-637.586,245.913-637.192,246.655-636.133Zm-11.082,12.339a24.179,24.179,0,0,1,2.2,3.407c-.061.076-1.787,1.287-3.83,2.725a23.374,23.374,0,0,1-4,2.544c-.3-.045-1.09-1.075-3.528-4.633-.939-1.378-1.135-1.756-1.014-1.953.212-.333,7.509-5.481,7.706-5.435C233.181-627.124,234.3-625.61,235.573-623.794Z" transform="translate(0 0)"/>
      <path id="Path_26" data-name="Path 26" d="M352-672.764c-.5.2-.59.424-.666,1.892l-.076,1.363-1.363.045c-1.786.045-1.892.167-1.892,1.983,0,1.786.167,1.953,1.968,2.014l1.287.045.076,1.317c.106,1.847.2,1.938,2.029,1.938,1.363,0,1.438-.015,1.741-.394.257-.333.318-.621.318-1.665V-665.5h1.347c1.287,0,1.378-.015,1.665-.394.257-.333.318-.621.318-1.635,0-1.756-.167-1.908-1.968-1.908h-1.363v-1.211c0-1.408-.182-1.892-.8-2.12A6.359,6.359,0,0,0,352-672.764Z" transform="translate(-132.382 -35.435)"/>
      <path id="Path_27" data-name="Path 27" d="M295.921-474.773a3.023,3.023,0,0,0-.076,5.6,3.074,3.074,0,0,0,4.057-2.1A3.1,3.1,0,0,0,296.875-475,4.057,4.057,0,0,0,295.921-474.773Z" transform="translate(-86.556 -203.373)"/>
      <path id="Path_28" data-name="Path 28" d="M434.529-474.606a3.012,3.012,0,0,0-1.847,2,3.014,3.014,0,0,0,5.117,2.831,2.656,2.656,0,0,0,.727-2.044,2.635,2.635,0,0,0-.954-2.21A2.915,2.915,0,0,0,434.529-474.606Z" transform="translate(-204.134 -203.54)"/>
      <path id="Path_29" data-name="Path 29" d="M343.923-416.3a1.566,1.566,0,0,0-.59,2.483,6.234,6.234,0,0,0,2.392,1.484,9.537,9.537,0,0,0,8.024-.5c1.272-.666,1.771-1.226,1.771-2a1.659,1.659,0,0,0-2.725-1.241,6.447,6.447,0,0,1-6.964.106A1.961,1.961,0,0,0,343.923-416.3Z" transform="translate(-128.093 -253.075)"/>
      <path id="Path_30" data-name="Path 30" d="M530-190.575a1.216,1.216,0,0,0-.5,1.226,1.216,1.216,0,0,0,.5,1.226,1.707,1.707,0,0,0,2.755-.681,1.72,1.72,0,0,0-.787-2A1.689,1.689,0,0,0,530-190.575Z" transform="translate(-286.403 -444.361)"/>
      <path id="Path_31" data-name="Path 31" d="M493.115-164.723a1.742,1.742,0,0,0,.151,3.164,1.709,1.709,0,0,0,2.21-1.65A1.7,1.7,0,0,0,493.115-164.723Z" transform="translate(-254.727 -466.565)"/>
      <path id="Path_32" data-name="Path 32" d="M553.09-158.389a1.729,1.729,0,0,0-1.09,1.544,1.821,1.821,0,0,0,1.665,1.771,2.153,2.153,0,0,0,1.423-.787,2.023,2.023,0,0,0,.242-1,1.3,1.3,0,0,0-.439-1.105,1.517,1.517,0,0,0-.666-.439,2.047,2.047,0,0,1-.439-.061A1.823,1.823,0,0,0,553.09-158.389Z" transform="translate(-305.496 -471.975)"/>
      <path id="Path_33" data-name="Path 33" d="M515.158-131.561a1.61,1.61,0,0,0,.091,2.392,1.658,1.658,0,0,0,2.8-1.332,1.372,1.372,0,0,0-.515-.984,1.344,1.344,0,0,0-1.226-.515A1.294,1.294,0,0,0,515.158-131.561Z" transform="translate(-273.817 -494.443)"/>
    </g>
  </g>
</svg>
