<svg xmlns="http://www.w3.org/2000/svg" xmlns:xlink="http://www.w3.org/1999/xlink" width="128" height="128" viewBox="0 0 128 128">
  <defs>
    <clipPath id="clip-bezoek">
      <rect width="128" height="128"/>
    </clipPath>
  </defs>
  <g id="bezoek" clip-path="url(#clip-bezoek)">
    <g id="bezoek-2" data-name="bezoek" transform="translate(-4 -2)">
      <path id="Subtraction_3" data-name="Subtraction 3" d="M-103.682-175.655h-.2l.129,0c.346,0,.713,0,1.122-.009C-103.024-175.658-103.369-175.655-103.682-175.655Zm27-6c-2.8,0-5.971-.248-6.312-.792-.458-.73-1.692-14.17-2.387-22.117.447.039.873.06,1.266.06,1.681,0,2.757-.369,3.2-1.1.556-.921.1-5.839-1.243-13.493-1.114-6.336-2.678-13.558-3.717-17.173,1.449-.136,3.062-.165,4.161-.165.708,0,1.189.012,1.242.013l3.766,4.3,3.208-4.3h.014c.3-.017,1.381-.073,2.678-.073,2.394,0,5.354.185,5.863,1.065a25.235,25.235,0,0,1,1.024,4.344c.43,2.276.924,5.211,1.393,8.265.817,5.327,1.683,11.908,1.435,12.923-.136.557-.777.839-1.9.839a19.845,19.845,0,0,1-4.65-.839v.061c-.108,2.7-1.09,26.373-2.382,27.385a6.032,6.032,0,0,1-2.473.6A40.487,40.487,0,0,1-76.68-181.654Zm-53,0c-2.8,0-5.97-.248-6.312-.792-.64-1.02-2.821-27.182-2.843-27.446a.059.059,0,0,1-.019,0,29.458,29.458,0,0,1-4.95.6c-1.233,0-1.972-.2-2.2-.6-.177-.314-.123-1.833.155-4.394.245-2.255.657-5.249,1.161-8.432.927-5.854,2.133-12.1,2.647-12.706.738-.875,4.9-1.005,7.322-1.005.709,0,1.189.012,1.242.013l3.766,4.3,3.208-4.3h.014c.3-.017,1.381-.073,2.678-.073l.407,0c-2.124,6.832-6.155,28.783-5.1,30.889.367.729,1.485,1.1,3.323,1.1a25.59,25.59,0,0,0,4.309-.447c-.385,8.073-1.181,21.73-2.167,22.5a6.032,6.032,0,0,1-2.473.6A40.487,40.487,0,0,1-129.68-181.654ZM-104-241a11.425,11.425,0,0,1-8.132-3.368A11.425,11.425,0,0,1-115.5-252.5a11.425,11.425,0,0,1,3.368-8.132A11.425,11.425,0,0,1-104-264a11.425,11.425,0,0,1,8.132,3.368A11.425,11.425,0,0,1-92.5-252.5a11.425,11.425,0,0,1-3.368,8.132A11.425,11.425,0,0,1-104-241Zm26.5-2a10.012,10.012,0,0,1-10-10,10.011,10.011,0,0,1,10-10,10.011,10.011,0,0,1,10,10A10.012,10.012,0,0,1-77.5-243Zm-53,0a10.012,10.012,0,0,1-10-10,10.011,10.011,0,0,1,10-10,10.011,10.011,0,0,1,10,10A10.012,10.012,0,0,1-130.5-243Z" transform="translate(171.499 286)"/>
      <path id="Path_12" data-name="Path 12" d="M424,290.583s7.706-.476,8.554.992,4.3,24.469,3.852,25.532-6.555,0-6.555,0-1.005,32.367-2.383,33.447-12.314,1.03-12.961,0-2.844-33.447-2.844-33.447-6.609,1.324-7.165,0,2.953-24.334,3.964-25.532,8.565-.992,8.565-.992l3.765,4.3Z" transform="translate(-352 -241)"/>
    </g>
  </g>
</svg>
